<?xml version="1.0" standalone="no"?>
<!DOCTYPE svg PUBLIC "-//W3C//DTD SVG 20010904//EN"
 "http://www.w3.org/TR/2001/REC-SVG-20010904/DTD/svg10.dtd">
<svg version="1.0" xmlns="http://www.w3.org/2000/svg"
 width="318.000000pt" height="191.000000pt" viewBox="0 0 318.000000 191.000000"
 preserveAspectRatio="xMidYMid meet">

<g transform="translate(0.000000,191.000000) scale(0.100000,-0.100000)"
fill="#000000" stroke="none">
<path d="M237 1892 c-16 -17 -15 -20 6 -40 l24 -22 18 20 c17 19 17 21 0 40
-22 25 -28 25 -48 2z"/>
<path d="M180 1815 c-7 -9 -19 -14 -27 -11 -7 3 -13 1 -13 -4 0 -5 -21 -11
-47 -13 l-48 -3 54 -2 c41 -2 61 -8 78 -24 l23 -21 23 21 c29 27 131 33 121 7
-4 -9 0 -15 8 -15 8 0 23 -9 33 -20 l18 -20 24 22 c13 12 23 27 23 35 0 10 34
13 160 13 136 0 160 -2 160 -15 0 -8 5 -15 10 -15 6 0 10 7 10 15 0 9 9 15 22
15 21 0 21 0 -3 -27 -13 -16 -27 -29 -31 -31 -11 -5 -10 -32 1 -32 5 0 11 6
14 13 3 8 15 2 36 -18 l31 -29 38 37 37 38 -24 20 c-13 11 -22 22 -19 24 3 3
106 4 229 3 l224 -3 -65 -32 c-36 -18 -82 -48 -104 -67 -43 -40 -85 -51 -64
-16 11 17 8 24 -23 56 l-36 35 -52 -57 c-46 -50 -55 -56 -71 -46 -12 7 -21 8
-25 2 -3 -6 -30 -10 -59 -10 -40 0 -57 5 -71 20 -18 20 -19 20 -39 1 -19 -18
-36 -20 -196 -20 -145 0 -178 3 -192 16 -16 15 -20 15 -36 0 -22 -20 -38 -22
-45 -4 -4 10 -6 10 -6 0 -1 -10 -29 -13 -106 -13 -63 0 -105 -4 -105 -10 0 -6
44 -10 112 -10 108 0 113 -1 140 -27 l28 -27 28 27 c27 26 91 40 77 17 -4 -6
-12 -7 -18 -4 -7 4 -9 4 -5 -1 4 -4 3 -14 -4 -22 -9 -11 -6 -20 15 -41 l26
-26 26 24 25 24 -27 28 -27 28 122 0 c88 0 122 -3 122 -12 0 -15 50 -68 65
-68 15 0 65 53 65 68 0 7 12 12 27 12 l27 0 -27 -28 -27 -28 35 -34 c19 -19
35 -37 35 -41 0 -9 -63 -5 -79 5 -6 4 -17 4 -23 -1 -33 -20 -73 -9 -115 31
l-43 40 -44 -43 c-40 -40 -45 -42 -55 -25 -10 18 -12 18 -24 2 -19 -24 -133
-14 -165 15 l-22 21 -28 -26 c-26 -25 -30 -26 -134 -21 -77 4 -108 2 -108 -6
0 -7 30 -11 90 -11 73 0 90 -3 90 -15 0 -20 17 -19 29 3 8 14 13 15 28 4 34
-23 44 -24 62 -8 11 10 36 16 71 16 l54 0 -29 -30 -29 -30 35 -35 35 -35 34
35 34 35 -22 30 c-36 48 -8 35 47 -22 l51 -53 51 53 c28 28 58 52 67 52 12 0
8 -8 -13 -30 l-29 -30 39 -40 39 -40 -65 0 c-43 0 -72 5 -87 16 -22 15 -25 15
-43 -2 -17 -16 -22 -16 -29 -4 -7 10 -10 11 -10 3 0 -10 -57 -13 -250 -13
-160 0 -250 -4 -250 -10 0 -6 92 -10 257 -10 250 0 257 -1 280 -22 l23 -21 23
21 c16 15 36 22 62 22 l39 0 -38 -39 c-27 -28 -44 -37 -58 -33 -15 4 -19 1
-16 -9 3 -8 10 -13 16 -12 5 1 18 -7 28 -18 17 -19 17 -20 -12 -17 -95 6 -604
-3 -604 -12 0 -6 116 -10 327 -10 290 0 328 -2 345 -17 16 -15 19 -15 36 0 14
12 41 16 132 16 l115 0 32 -31 33 -32 30 29 30 29 43 -41 c23 -22 62 -52 87
-64 l45 -24 -630 -5 c-495 -4 -400 -5 440 -5 l1070 0 3 113 3 112 73 0 c105 0
174 16 224 50 23 17 45 30 47 30 3 0 5 -11 5 -23 0 -42 59 -143 111 -192 27
-25 75 -58 107 -73 53 -25 66 -27 187 -27 76 1 141 6 158 13 l27 12 0 140 0
140 -41 -27 c-59 -39 -150 -44 -198 -11 -52 35 -73 69 -73 120 -1 52 23 100
65 132 46 34 130 29 196 -11 29 -18 53 -33 54 -33 1 0 1 65 -1 144 l-3 143
-39 12 c-109 33 -249 22 -342 -25 -48 -25 -121 -88 -151 -133 -9 -14 -18 -23
-19 -20 -2 2 -14 25 -27 51 -28 57 -73 93 -146 119 -52 18 -97 19 -1016 19
-704 0 -966 3 -976 12 -10 8 -17 8 -25 0 -7 -7 -41 -12 -78 -12 -54 0 -70 4
-85 20 -22 24 -29 25 -45 5z m1730 -105 l0 -70 -38 0 c-28 0 -45 7 -62 25 -31
33 -108 82 -143 90 -65 17 -30 25 102 25 l141 0 0 -70z m-905 -60 c3 -5 1 -10
-4 -10 -6 0 -11 5 -11 10 0 6 2 10 4 10 3 0 8 -4 11 -10z m115 -34 c0 -1 -13
-27 -29 -59 -27 -56 -28 -57 -46 -37 -18 20 -18 19 -52 -10 -29 -26 -36 -28
-53 -18 -22 14 -25 24 -10 33 6 3 10 -2 10 -11 0 -14 8 -10 35 16 l35 34 -26
27 -27 28 82 -1 c44 -1 81 -2 81 -2z m789 -58 c0 -35 -3 -56 -6 -48 -3 8 -16
36 -29 63 l-23 47 29 0 30 0 -1 -62z m-969 7 c0 -8 -4 -15 -10 -15 -5 0 -10 7
-10 15 0 8 5 15 10 15 6 0 10 -7 10 -15z m1359 -10 c18 -18 17 -74 -2 -93 -8
-8 -36 -17 -61 -19 l-46 -6 0 73 0 73 47 -7 c26 -3 54 -13 62 -21z m-539 -90
c0 -21 -96 -106 -112 -100 -10 4 -17 -1 -21 -15 -5 -20 -11 -20 -144 -18
l-138 3 -3 41 c-2 22 2 52 7 67 10 27 12 27 113 29 l103 2 -92 3 c-54 2 -93 8
-93 14 0 6 21 19 46 30 50 22 98 20 139 -7 20 -13 24 -11 55 20 l33 35 53 -47
c30 -26 54 -52 54 -57z m-410 80 c0 -8 -4 -15 -9 -15 -13 0 -22 16 -14 24 11
11 23 6 23 -9z m-720 -44 c0 -6 -4 -13 -10 -16 -5 -3 -10 1 -10 9 0 9 5 16 10
16 6 0 10 -4 10 -9z m720 -11 c0 -5 -7 -10 -15 -10 -8 0 -15 5 -15 10 0 6 7
10 15 10 8 0 15 -4 15 -10z m-130 -155 l-50 -50 -47 48 -47 47 49 50 49 50 48
-47 48 -48 -50 -50z m-260 120 c11 -13 8 -21 -19 -49 -25 -25 -31 -39 -26 -55
6 -19 3 -21 -39 -21 -25 0 -46 3 -46 7 0 4 14 22 32 40 l32 33 -22 23 c-12 13
-22 26 -22 30 0 15 98 7 110 -8z m-333 -21 c-9 -9 -28 6 -21 18 4 6 10 6 17
-1 6 -6 8 -13 4 -17z m173 11 c0 -8 -4 -15 -10 -15 -5 0 -10 7 -10 15 0 8 5
15 10 15 6 0 10 -7 10 -15z m227 -21 c-9 -9 -28 6 -21 18 4 6 10 6 17 -1 6 -6
8 -13 4 -17z m-227 -35 c0 -5 -4 -9 -10 -9 -5 0 -10 7 -10 16 0 8 5 12 10 9 6
-3 10 -10 10 -16z m510 -10 c0 -5 -7 -9 -15 -9 -15 0 -20 12 -9 23 8 8 24 -1
24 -14z m-280 1 c0 -5 -4 -10 -9 -10 -6 0 -13 5 -16 10 -3 6 1 10 9 10 9 0 16
-4 16 -10z m280 -50 c0 -5 -7 -10 -15 -10 -8 0 -15 5 -15 10 0 6 7 10 15 10 8
0 15 -4 15 -10z m-467 -20 c21 0 20 -1 -5 -27 l-27 -27 -26 24 c-24 22 -24 25
-8 31 10 4 24 6 31 3 8 -2 23 -4 35 -4z m135 -23 l22 -21 30 29 c26 25 30 26
30 9 -1 -25 -93 -124 -116 -124 -14 0 -12 6 11 30 l29 30 -32 33 c-48 50 -27
61 26 14z m661 -19 c22 -24 41 -48 41 -53 0 -6 -19 -30 -43 -53 l-43 -42 -43
44 c-29 29 -42 50 -38 60 5 13 -1 16 -29 16 -40 0 -80 18 -108 49 l-19 21 121
0 121 0 40 -42z m-749 16 c0 -8 -4 -12 -10 -9 -5 3 -10 10 -10 16 0 5 5 9 10
9 6 0 10 -7 10 -16z m340 6 c0 -5 -7 -10 -15 -10 -8 0 -15 5 -15 10 0 6 7 10
15 10 8 0 15 -4 15 -10z m680 -60 c0 -46 -2 -50 -24 -50 l-25 0 22 50 c12 27
23 50 25 50 1 0 2 -22 2 -50z m-535 -20 l49 -50 -54 -55 -54 -55 -53 52 -53
52 52 53 c29 29 55 53 58 53 3 0 28 -23 55 -50z m-485 25 c0 -8 -4 -15 -10
-15 -5 0 -10 7 -10 15 0 8 5 15 10 15 6 0 10 -7 10 -15z m338 4 c-2 -6 -8 -10
-13 -10 -5 0 -11 4 -13 10 -2 6 4 11 13 11 9 0 15 -5 13 -11z m-383 -49 c3 -5
-3 -10 -14 -10 -12 0 -21 5 -21 10 0 6 6 10 14 10 8 0 18 -4 21 -10z m1065
-100 l0 -70 -122 0 -123 0 64 38 c35 20 76 52 90 69 20 25 34 33 59 33 l32 0
0 -70z m-388 13 c26 -26 48 -51 48 -55 0 -4 -47 -8 -105 -8 -58 0 -105 3 -105
7 0 11 93 103 104 103 6 0 32 -21 58 -47z"/>
<path d="M1612 1499 c2 -6 8 -10 13 -10 5 0 11 4 13 10 2 6 -4 11 -13 11 -9 0
-15 -5 -13 -11z"/>
<path d="M1616 1453 c-11 -11 -6 -23 9 -23 8 0 15 4 15 9 0 13 -16 22 -24 14z"/>
<path d="M1146 1423 c-11 -11 -6 -23 9 -23 8 0 15 4 15 9 0 13 -16 22 -24 14z"/>
<path d="M1142 1359 c2 -6 8 -10 13 -10 5 0 11 4 13 10 2 6 -4 11 -13 11 -9 0
-15 -5 -13 -11z"/>
<path d="M1562 1259 c2 -6 8 -10 13 -10 5 0 11 4 13 10 2 6 -4 11 -13 11 -9 0
-15 -5 -13 -11z"/>
<path d="M1566 1213 c-11 -11 -6 -23 9 -23 8 0 15 4 15 9 0 13 -16 22 -24 14z"/>
<path d="M1272 1179 c2 -6 8 -10 13 -10 5 0 11 4 13 10 2 6 -4 11 -13 11 -9 0
-15 -5 -13 -11z"/>
<path d="M1270 1125 c0 -9 5 -15 11 -13 6 2 11 8 11 13 0 5 -5 11 -11 13 -6 2
-11 -4 -11 -13z"/>
<path d="M559 1724 l-24 -26 29 -25 29 -25 25 26 26 25 -24 26 c-29 31 -31 31
-61 -1z"/>
<path d="M502 1719 c2 -6 8 -10 13 -10 5 0 11 4 13 10 2 6 -4 11 -13 11 -9 0
-15 -5 -13 -11z"/>
<path d="M967 1714 c-8 -8 1 -24 14 -24 5 0 9 7 9 15 0 15 -12 20 -23 9z"/>
<path d="M506 1673 c-11 -11 -6 -23 9 -23 8 0 15 4 15 9 0 13 -16 22 -24 14z"/>
<path d="M660 1580 c0 -5 5 -10 10 -10 6 0 10 5 10 10 0 6 -4 10 -10 10 -5 0
-10 -4 -10 -10z"/>
<path d="M790 1545 c0 -9 5 -15 11 -13 6 2 11 8 11 13 0 5 -5 11 -11 13 -6 2
-11 -4 -11 -13z"/>
<path d="M230 1510 c0 -5 7 -10 15 -10 8 0 15 5 15 10 0 6 -7 10 -15 10 -8 0
-15 -4 -15 -10z"/>
<path d="M390 1425 c0 -9 5 -15 11 -13 6 2 11 8 11 13 0 5 -5 11 -11 13 -6 2
-11 -4 -11 -13z"/>
<path d="M390 1370 c0 -5 4 -10 9 -10 6 0 13 5 16 10 3 6 -1 10 -9 10 -9 0
-16 -4 -16 -10z"/>
<path d="M905 807 c-3 -6 -4 -183 -3 -392 l3 -380 215 0 215 0 62 29 c72 33
145 104 173 169 61 139 46 335 -33 439 -47 62 -109 105 -183 128 -57 17 -94
20 -255 20 -143 0 -191 -3 -194 -13z m384 -292 c21 -20 25 -34 25 -89 1 -58
-2 -69 -25 -92 -20 -20 -37 -26 -75 -27 l-49 -2 -3 109 c-1 61 0 116 3 124 8
22 94 6 124 -23z"/>
<path d="M1732 588 c-44 -128 -106 -304 -136 -390 l-55 -158 154 0 154 0 7 45
6 45 113 0 112 0 9 -43 9 -42 153 -3 c143 -2 153 -1 148 15 -4 10 -66 185
-139 388 l-133 370 -160 3 -160 2 -82 -232z m277 -153 c11 -56 21 -104 21
-108 0 -4 -25 -7 -56 -7 -53 0 -56 1 -51 23 3 12 15 67 27 121 14 61 25 94 30
85 4 -8 17 -59 29 -114z"/>
<path d="M2210 810 c10 -6 11 -10 3 -10 -7 0 -13 -4 -13 -10 0 -14 19 -12 35
4 17 16 9 26 -19 26 -17 0 -18 -2 -6 -10z"/>
<path d="M2180 786 c0 -8 4 -17 9 -20 5 -4 7 3 4 14 -6 23 -13 26 -13 6z"/>
<path d="M2229 763 c-13 -16 -12 -17 4 -4 16 13 21 21 13 21 -2 0 -10 -8 -17
-17z"/>
</g>
</svg>
